<svg id="Capa_1" enable-background="new 0 0 471.441 471.441" height="512" viewBox="0 0 471.441 471.441" width="512" xmlns="http://www.w3.org/2000/svg"><path d="m435.721 302.876c-17.673 0-32 14.327-32 32s14.327 32 32 32 32-14.327 32-32c-.02-17.665-14.336-31.98-32-32zm0 48c-8.837 0-16-7.163-16-16s7.163-16 16-16 16 7.163 16 16c-.01 8.832-7.168 15.99-16 16z"/><path d="m36.213 438.704c-.325 2.713-.489 5.442-.492 8.174 0 4.418 3.582 8 8 8h49.316c12.913 17.885 37.88 21.915 55.765 9.001 3.462-2.5 6.501-5.539 9.001-9.001h191.234c12.913 17.885 37.88 21.915 55.765 9.001 3.462-2.5 6.501-5.539 9.001-9.001h21.918c2.122 0 4.157-.843 5.657-2.343l16-16c1.5-1.5 2.343-3.535 2.343-5.657v-32c0-3.271-1.992-6.213-5.029-7.428l-39.529-15.812-26.962-14.978c-1.5-.822-2.984-1.6-4.453-2.368 8.534-15.453 2.924-34.898-12.529-43.432-8.773-4.845-19.31-5.294-28.463-1.214-11.7-23.76-40.446-33.537-64.207-21.837-7.244 3.567-13.471 8.906-18.101 15.521-15.198-26.918-49.339-36.419-76.257-21.222-15.459 8.728-25.861 24.273-28.033 41.893-17.069-4.643-34.671 5.431-39.314 22.5-.743 2.73-1.12 5.547-1.123 8.377-.004 5.62 1.481 11.141 4.305 16h-12.305c-2.677.001-5.352.154-8.012.458 0-.153.012-.305.012-.46.002-17.673-14.324-32.001-31.997-32.003-14.647-.001-27.426 9.942-31.023 24.141-19.809 1.667-34.516 19.077-32.849 38.886 1.457 17.311 15.071 31.112 32.361 32.804zm110.484 3.817c-.198.307-.376.628-.53.959-6.64 11.459-21.312 15.366-32.771 8.726-3.753-2.175-6.847-5.327-8.95-9.121-.015-.027-.032-.054-.047-.081-6.396-11.609-2.171-26.206 9.439-32.602 11.609-6.396 26.206-2.171 32.602 9.439 3.879 7.04 3.976 15.554.259 22.681zm121.024-22.958-19.313 19.313h-52.687v-48h72zm-75.065-49.525c17.274-8.377 35.711-14.108 54.69-17-10.008 19.672-34.068 27.507-53.74 17.499-.319-.162-.636-.328-.95-.499zm210.041 72.488c-.198.307-.376.628-.53.959-6.64 11.459-21.312 15.366-32.771 8.726-3.753-2.175-6.847-5.327-8.95-9.121-.015-.027-.032-.054-.047-.081-6.396-11.609-2.171-26.206 9.439-32.602s26.206-2.171 32.602 9.439c3.879 7.04 3.976 15.554.259 22.681zm-55.317-113.27c7.506-4.626 17.341-2.292 21.968 5.214 3.213 5.212 3.161 11.803-.133 16.965-7.259-3.115-14.692-5.806-22.262-8.06.852-4.658.996-9.418.427-14.119zm-2 59.284 13.856-13.856c4.563-.495 8.966-1.969 12.907-4.321 2.7 1.321 5.493 2.759 8.335 4.313l27.36 15.2c.295.164.6.309.914.435l34.969 13.983v2.582h-8v16h8v4.688l-11.314 11.314h-11.692c4.128-21.702-10.119-42.642-31.821-46.77s-42.642 10.119-46.77 31.821c-.939 4.939-.939 10.01 0 14.948h-71.091l10.345-10.34c1.501-1.502 2.344-3.539 2.343-5.662v-32h56c2.121.001 4.156-.84 5.657-2.338zm-73.336-37.632c1.15-.019 2.318-.03 3.517-.03h13.12c12.199.018 24.369 1.21 36.34 3.56-10.526 13.665-30.002 16.499-43.986 6.4-.329-.295-.682-.562-1.055-.8-3.198-2.515-5.891-5.613-7.936-9.13zm63.033 16.394c1.639 1.378 3.41 2.59 5.288 3.618l-3.957 3.958h-10.2c3.251-2.158 6.229-4.702 8.869-7.576zm-35.356-64.426c17.66-.013 31.987 14.294 32 31.954.001 1.534-.108 3.066-.327 4.584-14.041-2.992-28.356-4.513-42.713-4.536h-13.12c-2.721 0-5.32.047-7.836.139 0-.047 0-.094 0-.141.019-17.663 14.332-31.978 31.996-32zm-32 67.739v4.261h-16.862c3.763-3.682 6.99-7.874 9.589-12.453 2.106 2.997 4.546 5.746 7.273 8.192zm-56-75.739c22.081.025 39.975 17.919 40 40 0 .477-.019.949-.036 1.422-25.193 2.994-49.622 10.586-72.073 22.4-13.168-17.723-9.475-42.766 8.248-55.934 6.899-5.126 15.266-7.892 23.861-7.888zm-64 48c3.246-.018 6.416.981 9.066 2.856 1.184 5.988 3.346 11.739 6.4 17.024-1.706 7.147-8.118 12.173-15.466 12.122-8.837 0-16-7.163-16-16s7.163-16 16-16zm-53.331 49.662c4.359-1.096 8.836-1.653 13.331-1.66h72v48h-15.006c4.128-21.702-10.119-42.642-31.821-46.77s-42.642 10.119-46.77 31.821c-.939 4.939-.939 10.01 0 14.948h-33.803c.125-.826.289-1.644.452-2.463 6.86-2.697 12.737-7.418 16.848-13.537h6.1v-16h-.217c.036-.325.055-.655.081-.982 7.706-1.968 14.408-6.728 18.805-13.357zm-26.669-33.662c8.837 0 16 7.163 16 16s-7.163 16-16 16-16-7.163-16-16c.01-8.832 7.167-15.99 16-16zm-30.919 24.24c2.976 11.073 11.629 19.72 22.705 22.687-.28 1.963-.866 3.87-1.736 5.651-2.632 5.523-7.639 9.545-13.6 10.925-1.46.338-2.954.506-4.453.5-11.039.009-19.994-8.933-20.003-19.971-.008-9.923 7.266-18.349 17.084-19.791z"/><path d="m259.721 278.876c13.255 0 24-10.745 24-24s-10.745-24-24-24-24 10.745-24 24c.015 13.249 10.751 23.985 24 24zm0-32c4.418 0 8 3.582 8 8s-3.582 8-8 8-8-3.582-8-8c.005-4.416 3.583-7.995 8-8z"/><path d="m27.721 111.438h400c13.249-.015 23.985-10.751 24-24 .007-6.537-2.679-12.788-7.426-17.282-4.515-4.276-10.592-6.503-16.8-6.156h-175.774v-56c0-4.418-3.582-8-8-8h-32c-4.418 0-8 3.582-8 8v56h-175.773c-6.208-.343-12.284 1.883-16.8 6.156-4.748 4.494-7.434 10.745-7.427 17.282.014 13.249 10.751 23.985 24 24zm192-95.438h16v48h-16zm-197.625 65.823c1.261-1.194 2.933-1.857 4.669-1.854.149 0 .3 0 .449.014.169.011.338.017.507.017h400c.169 0 .338-.006.507-.017 1.888-.131 3.745.537 5.118 1.84 1.53 1.466 2.389 3.496 2.375 5.615-.005 4.416-3.584 7.995-8 8h-400c-4.416-.005-7.995-3.584-8-8-.014-2.119.845-4.149 2.375-5.615z"/><path d="m219.721 142.876h16v16h-16z"/><path d="m219.721 174.876h16v24h-16z"/><path d="m219.721 214.876h16v16h-16z"/><path d="m171.721 182.876h16v16h-16z"/><path d="m171.721 142.876h16v24h-16z"/><path d="m171.721 214.876h16v24h-16z"/><path d="m171.721 254.876h16v16h-16z"/><path d="m75.721 182.876h16v16h-16z"/><path d="m75.721 142.876h16v24h-16z"/><path d="m75.721 214.876h16v24h-16z"/><path d="m75.721 254.876h16v16h-16z"/><path d="m123.721 142.876h16v16h-16z"/><path d="m123.721 174.876h16v24h-16z"/><path d="m123.721 246.876h16v24h-16z"/><path d="m123.721 214.876h16v16h-16z"/><path d="m123.721 286.876h16v16h-16z"/><path d="m363.721 182.876h16v16h-16z"/><path d="m363.721 142.876h16v24h-16z"/><path d="m363.721 214.876h16v24h-16z"/><path d="m363.721 254.876h16v16h-16z"/><path d="m267.721 182.876h16v16h-16z"/><path d="m267.721 142.876h16v24h-16z"/><path d="m315.721 142.876h16v16h-16z"/><path d="m315.721 174.876h16v24h-16z"/><path d="m315.721 246.876h16v24h-16z"/><path d="m315.721 214.876h16v16h-16z"/></svg>