<svg id="Capa_1" enable-background="new 0 0 480.001 480.001" height="512" viewBox="0 0 480.001 480.001" width="512" xmlns="http://www.w3.org/2000/svg"><path d="m396.92 352.001c-7.719-.004-15.051 3.377-20.06 9.25-1.692-1.981-3.668-3.7-5.864-5.1 7.002-7.344 13.375-15.264 19.05-23.675l-13.272-8.945c-7.128 10.573-15.46 20.283-24.829 28.934-5.898 1.096-11.244 4.173-15.155 8.722-9.483-11.043-26.122-12.309-37.166-2.826-2.226 1.911-4.117 4.181-5.595 6.715-4.104-8.017-12.348-13.065-21.355-13.075h-43.9c-11.71-15.156-29.788-24.021-48.94-24h-14.316c-16.127-.016-31.62 6.276-43.168 17.533-8.637-8.988-16.225-18.929-22.619-29.63l-13.741 8.2c5.935 9.936 12.811 19.278 20.534 27.897h-41.85v-8c0-4.418-3.582-8-8-8h-48c-4.418 0-8 3.582-8 8v128c0 4.418 3.582 8 8 8h112c4.418 0 8-3.582 8-8v-6.775l102.869 14.695c.375.054.753.08 1.131.08.295 0 .59-.017.883-.049l144-16c2.475-.275 4.682-1.686 5.968-3.819l24.124-40c.189-.315.356-.643.5-.981l13.025-30.376c5.739-13.393-.465-28.903-13.858-34.642-3.285-1.408-6.822-2.134-10.396-2.133zm-348.246 112h-32v-112h32zm244.132-56 .7-1.636c1.054-.8 1.893-1.849 2.443-3.052 8.953-2.889 17.665-6.476 26.056-10.73l-6.606 15.418zm45.507-12.849 7.221-16.85c4.44-3.183 8.737-6.571 12.89-10.164 5.658.892 9.522 6.201 8.63 11.859-.134.852-.374 1.684-.715 2.477l.1.045-10.916 25.482h-22.717zm-21.517-27.151c3.41-.026 6.608 1.653 8.523 4.474-7.06 4.256-14.432 7.973-22.052 11.119l3.985-9.3c1.634-3.82 5.389-6.297 9.544-6.293zm-136.966-24c15.35-.016 29.687 7.657 38.188 20.438 1.484 2.225 3.981 3.562 6.656 3.562h48c4.416.005 7.995 3.584 8 8v15.062c-1.324.333-2.656.638-3.99.938h-12.01c-2.435.002-4.737 1.115-6.251 3.022-45.014 4.988-90.077-8.948-124.418-38.475 8.51-8.063 19.79-12.554 31.513-12.547zm-67.156 120h-48v-96h48zm293.79-81.527-12.8 29.868-21.8 36.144-139.064 15.452-104.126-14.875v-76.177c38.109 30.325 86.887 43.897 135.182 37.615l11.161 11.16c1.501 1.499 3.536 2.341 5.657 2.34h80.124c3.2 0 6.092-1.907 7.353-4.849l19.223-44.858c1.635-3.82 5.391-6.296 9.546-6.293 5.734 0 10.383 4.648 10.383 10.383 0 1.405-.285 2.797-.839 4.09z"/><path d="m471.322.001h-112c-4.418 0-8 3.582-8 8v6.776l-102.868-14.696c-.668-.096-1.345-.106-2.015-.031l-144 16c-2.475.275-4.681 1.687-5.967 3.819l-24.124 40c-.189.315-.356.643-.5.981l-13.021 30.375c-5.74 13.392.464 28.902 13.857 34.641 10.614 4.549 22.954 1.666 30.453-7.115 1.909 2.236 4.179 4.136 6.716 5.621-13.448 14.209-24.49 30.514-32.693 48.275l14.527 6.706c9.126-19.762 22.094-37.511 38.146-52.213 5.199-1.345 9.862-4.248 13.365-8.318 9.494 11.042 26.141 12.297 37.183 2.803 2.22-1.909 4.107-4.174 5.583-6.703 4.104 8.02 12.349 13.069 21.358 13.079h43.9c11.71 15.156 29.788 24.021 48.941 24h14.311c16.467.017 32.259-6.545 43.866-18.226 12.942 13.311 23.531 28.723 31.316 45.578l14.528-6.706c-7.511-16.259-17.406-31.307-29.357-44.646h40.5v8c0 4.418 3.582 8 8 8h48c4.418 0 8-3.582 8-8v-128c0-4.418-3.582-8-8-8-.002 0-.004 0-.005 0zm-388.248 112c-5.735 0-10.384-4.65-10.383-10.385 0-1.406.286-2.797.839-4.089l12.8-29.868 21.8-36.143 139.066-15.452 104.126 14.876v75.1c-4-3.115-8.116-6.092-12.386-8.879-29.219-19.074-63.368-29.208-98.262-29.16-8.157.001-16.304.553-24.387 1.65l-11.308-11.307c-1.5-1.5-3.535-2.343-5.657-2.343h-80.124c-3.2 0-6.092 1.907-7.353 4.849l-19.225 44.858c-1.634 3.82-5.391 6.296-9.546 6.293zm39.709-.025c-5.72-.217-10.18-5.03-9.963-10.75.048-1.274.331-2.527.834-3.698l-.1-.045 10.92-25.482h22.716l-5.506 12.849-7.842 18.3c-3.805 2.806-7.49 5.748-11.056 8.826zm41.815-39.975h22.592l-.7 1.636c-1.193.906-2.107 2.129-2.64 3.529-9.023 2.999-17.793 6.713-26.225 11.107zm-1.4 40c-3.16.023-6.153-1.422-8.1-3.911 6.835-4.193 13.97-7.876 21.347-11.019l-3.7 8.637c-1.633 3.82-5.389 6.297-9.544 6.293zm136.966 24c-15.35.017-29.688-7.656-38.188-20.438-1.483-2.225-3.98-3.561-6.654-3.562h-48c-4.416-.005-7.995-3.584-8-8v-14.732c1.748-.454 3.5-.872 5.267-1.268h10.733c2.365-.001 4.609-1.05 6.128-2.863 6.381-.752 12.799-1.131 19.224-1.137 31.788-.045 62.898 9.186 89.517 26.562 5.728 3.748 11.218 7.848 16.438 12.277-8.572 8.442-20.124 13.17-32.155 13.161zm67.155-24v-96h48v96zm96 16h-32v-112h32z"/><path d="m404.088 209.174-23.3-12.059c-27.783-13.85-58.396-21.076-89.439-21.114h-27.92c-26.854-.026-53.11 7.924-75.439 22.842l-13.738 9.158h-45.578c-39.746.045-71.955 32.254-72 72v8c0 4.418 3.582 8 8 8h48.022c13.231 17.661 38.273 21.253 55.934 8.022 3.042-2.279 5.743-4.98 8.022-8.022h160.044c13.231 17.661 38.273 21.253 55.934 8.022 3.042-2.279 5.743-4.98 8.022-8.022h6.9c13.386.019 25.891-6.67 33.305-17.815l6.48-9.76c.871-1.311 1.336-2.851 1.337-4.425-.034-26.518-18.633-49.388-44.586-54.827zm-99.414 24.716v11.3l-27.845 34.811h-60.155v-56h83.056zm4.944-25.889 7.106-14.21c17.121 2.398 33.823 7.181 49.618 14.21zm-46.189-16h27.92c2.76 0 5.519.083 8.276.208l-7.895 15.792h-88.144c18.196-10.498 38.836-16.017 59.843-16zm-118.755 104c-13.255 0-24-10.745-24-24s10.745-24 24-24 24 10.745 24 24c-.016 13.248-10.752 23.984-24 24zm0-64c-22.099.008-40.008 17.929-40 40.028.001 2.678.271 5.348.805 7.972h-32.805c0-5.419.788-10.809 2.341-16h13.659v-16h-5.917c10.458-15.03 27.607-23.993 45.917-24h72v56h-16.8c4.411-21.655-9.568-42.784-31.223-47.195-2.626-.535-5.298-.805-7.977-.805zm224 64c-13.255 0-24-10.745-24-24s10.745-24 24-24 24 10.745 24 24c-.016 13.248-10.752 23.984-24 24zm58.864-26.678c-4.389 6.587-11.749 10.58-19.664 10.668 4.404-21.648-9.575-42.767-31.222-47.172s-42.767 9.575-47.172 31.222c-1.071 5.266-1.071 10.694.002 15.959h-32.162l21.6-27c1.136-1.419 1.754-3.182 1.754-5v-16c0-1.242-.289-2.467-.845-3.578l-2.211-4.422h75.056c12.581.003 24.426 5.931 31.969 16h-15.969v16h23.194c.383 1.875.63 3.775.74 5.686z"/></svg>